<?xml version="1.0" encoding="UTF-8" standalone="no"?>
<svg
   version="1.1"
   id="Layer_1"
   x="0px"
   y="0px"
   width="100%"
   viewBox="0 0 2001 2000"
   enable-background="new 0 0 2001 2000"
   xml:space="preserve"
   sodipodi:docname="file.svg"
   inkscape:export-filename="file.svg"
   inkscape:export-xdpi="96"
   inkscape:export-ydpi="96"
   inkscape:version="1.4.2 (f4327f4, 2025-05-13)"
   xmlns:inkscape="http://www.inkscape.org/namespaces/inkscape"
   xmlns:sodipodi="http://sodipodi.sourceforge.net/DTD/sodipodi-0.dtd"
   xmlns="http://www.w3.org/2000/svg"
   xmlns:svg="http://www.w3.org/2000/svg"><defs
   id="defs2" /><sodipodi:namedview
   id="namedview2"
   pagecolor="#ffffff"
   bordercolor="#000000"
   borderopacity="0.25"
   inkscape:showpageshadow="2"
   inkscape:pageopacity="0.0"
   inkscape:pagecheckerboard="0"
   inkscape:deskcolor="#d1d1d1"
   inkscape:zoom="0.27329677"
   inkscape:cx="398.83384"
   inkscape:cy="960.49433"
   inkscape:window-width="1920"
   inkscape:window-height="991"
   inkscape:window-x="-9"
   inkscape:window-y="-9"
   inkscape:window-maximized="1"
   inkscape:current-layer="Layer_1" />
<path
   fill="#000000"
   opacity="1.000000"
   stroke="none"
   d=" M1301.000000,2001.000000   C867.333313,2001.000000 434.166656,2001.000000 1.000000,2001.000000   C1.000000,1334.333374 1.000000,667.666687 1.000000,1.000000   C668.000000,1.000000 1335.000000,1.000000 2002.000000,1.000000   C2002.000000,667.666687 2002.000000,1334.333374 2002.000000,2001.000000   C1768.500000,2001.000000 1535.000000,2001.000000 1301.000000,2001.000000  M1196.751099,647.749634   C1189.367065,624.940918 1182.028442,602.117432 1174.590454,579.326355   C1152.461670,511.519836 1130.284424,443.729187 1108.145630,375.926025   C1098.369507,345.985168 1088.625610,316.033722 1078.892456,286.078827   C1053.916504,209.211426 1028.957642,132.338486 1003.967529,55.475700   C1003.448608,53.879601 1002.634583,52.379456 1001.380371,49.514702   C1000.159912,52.620022 999.414490,54.247002 998.872131,55.939075   C994.243408,70.379311 989.685181,84.842186 985.042969,99.278061   C957.138000,186.054718 929.208618,272.823547 901.303162,359.600098   C886.865906,404.495087 872.480225,449.406647 858.037659,494.299957   C829.713684,582.342407 801.390198,670.385010 773.000854,758.406372   C769.112732,770.461548 770.547302,770.007935 757.151062,770.007690   C515.319763,770.003662 273.488434,770.004761 31.657110,770.006165   C29.323877,770.006165 26.985542,769.935974 24.659338,770.069092   C23.278633,770.148071 21.917036,770.561157 19.275734,771.067871   C21.823734,773.263062 23.324999,774.720520 24.986845,775.963135   C45.274445,791.132629 65.600929,806.250000 85.887672,821.420593   C132.334625,856.153992 178.766129,890.908081 225.202209,925.656067   C324.479492,999.944763 423.761200,1074.227661 523.029114,1148.529053   C552.649841,1170.699951 582.252380,1192.895386 611.800781,1215.162476   C615.270447,1217.777222 618.213562,1219.012207 622.615601,1216.647095   C649.765076,1202.059204 676.857971,1187.342529 704.353210,1173.426270   C777.949036,1136.177002 851.836304,1099.532104 927.136169,1065.779663   C995.010254,1035.355835 1063.486572,1006.567139 1134.761353,984.936462   C1168.766968,974.616333 1203.134277,965.807312 1238.496460,961.460327   C1242.140747,961.012390 1245.837402,960.989197 1249.509644,960.768860   C1248.756714,963.088501 1247.744385,964.133118 1246.634644,965.061340   C1232.065430,977.246948 1217.484985,989.419067 1202.902466,1001.588806   C1159.539673,1037.776855 1116.178589,1073.967041 1072.808960,1110.146973   C1050.036011,1129.144531 1026.645630,1147.454102 1004.617798,1167.278564   C977.518982,1191.666992 951.555786,1217.316895 925.091492,1242.410767   C906.482788,1260.055908 887.825500,1277.650024 869.246338,1295.326172   C840.289307,1322.875977 810.953125,1350.045044 782.562622,1378.167969   C749.662476,1410.758179 717.387085,1443.989624 685.264404,1477.350708   C661.013733,1502.536621 637.260864,1528.209106 613.597839,1553.951416   C591.399902,1578.099731 569.272461,1602.329224 547.725220,1627.055664   C518.728455,1660.330811 490.269226,1694.075562 461.737549,1727.752808   C459.129272,1730.831543 457.049530,1734.676880 455.773315,1738.515015   C445.678497,1768.876709 435.820984,1799.317505 425.924133,1829.744873   C413.244019,1868.729492 400.591278,1907.722900 387.948669,1946.719727   C387.462524,1948.219482 387.204132,1949.792969 386.484100,1952.833374   C389.213562,1951.056152 390.727295,1950.182495 392.120667,1949.146851   C431.446289,1919.921753 470.758514,1890.678345 510.075592,1861.441650   C561.829651,1822.956543 613.587463,1784.476562 665.340637,1745.990356   C731.803955,1696.564697 798.268982,1647.141235 864.724426,1597.704712   C908.181396,1565.377075 951.651917,1533.067383 995.025391,1500.627930   C999.358582,1497.387085 1002.775879,1496.728027 1007.456116,1500.212280   C1036.996460,1522.204834 1066.724121,1543.945923 1096.377441,1565.786987   C1141.058960,1598.696899 1185.712036,1631.645508 1230.409546,1664.533569   C1310.273926,1723.297363 1390.173584,1782.012939 1470.036621,1840.778564   C1514.733276,1873.667725 1559.382690,1906.621216 1604.074951,1939.516357   C1605.421143,1940.507202 1607.008789,1941.169678 1609.792358,1942.708374   C1608.951904,1939.317505 1608.593506,1937.421021 1608.011841,1935.595703   C1602.649292,1918.765625 1597.274658,1901.939209 1591.853516,1885.127930   C1568.276123,1812.012939 1544.679932,1738.904175 1521.094727,1665.791626   C1504.672241,1614.882690 1488.281494,1563.963501 1471.831665,1513.063354   C1449.591187,1444.244263 1427.292847,1375.443848 1405.050537,1306.625366   C1397.209717,1282.365234 1389.389648,1258.097778 1381.711426,1233.786011   C1379.265381,1226.041382 1379.615967,1225.547485 1385.961304,1220.774170   C1424.051758,1192.120605 1462.140381,1163.464722 1500.241211,1134.825073   C1557.126465,1092.065552 1614.021118,1049.318481 1670.912598,1006.567261   C1729.269653,962.714539 1787.615967,918.847778 1845.988525,875.015747   C1889.968506,841.991150 1933.986572,809.017334 1977.964966,775.990601   C1979.681030,774.701904 1981.159668,773.097168 1982.748901,771.639709   C1982.549194,771.094788 1982.349487,770.549805 1982.149780,770.004883   C1979.066650,770.004883 1975.983521,770.004883 1972.900391,770.004883   C1730.902466,770.004700 1488.904419,770.004761 1246.906494,770.003235   C1236.324951,770.003174 1236.393677,769.973572 1233.094604,759.777344   C1221.090210,722.676147 1209.035645,685.591125 1196.751099,647.749634  z"
   id="path1"
   style="fill:#ffffff;fill-opacity:0" />
<path
   fill="#05050a"
   opacity="1"
   stroke="none"
   d="m 1196.8755,648.12482 c 12.1601,37.46631 24.2147,74.55133 36.2191,111.65252 3.2991,10.19623 3.2304,10.22583 13.8119,10.2259 241.9979,0.002 483.996,0.001 725.9939,0.002 h 9.2494 c 0.1997,0.54492 0.3994,1.08991 0.5991,1.63483 -1.5892,1.45746 -3.0679,3.06219 -4.7839,4.35089 -43.9784,33.02673 -87.9965,66.00055 -131.9765,99.02515 -58.3725,43.83203 -116.7188,87.69879 -175.0759,131.55155 -56.8915,42.7512 -113.7861,85.4983 -170.6714,128.2578 -38.1008,28.6396 -76.1894,57.2955 -114.2799,85.9491 -6.3453,4.7733 -6.6959,5.2672 -4.2499,13.0118 7.6782,24.3118 15.4983,48.5792 23.3391,72.8394 22.2423,68.8184 44.5407,137.6189 66.7812,206.438 16.4498,50.9001 32.8405,101.8193 49.263,152.7282 23.5852,73.1126 47.1814,146.2213 70.7588,219.3363 5.4212,16.8113 10.7958,33.6377 16.1583,50.4678 0.5817,1.8253 0.9401,3.7218 1.7806,7.1127 -2.7836,-1.5387 -4.3713,-2.2012 -5.7174,-3.192 -44.6923,-32.8952 -89.3417,-65.8487 -134.0384,-98.7378 -79.863,-58.7657 -159.7627,-117.4812 -239.6271,-176.245 -44.6975,-32.8881 -89.3505,-65.8367 -134.0321,-98.7466 -29.6533,-21.8411 -59.3809,-43.5822 -88.9213,-65.5747 -4.6802,-3.4843 -8.09752,-2.8252 -12.43071,0.4156 -43.37347,32.4395 -86.84399,64.7492 -130.30096,97.0768 -66.45545,49.4365 -132.92048,98.86 -199.38379,148.2857 -51.75318,38.4862 -103.51099,76.9661 -155.26505,115.4513 -39.31708,29.2366 -78.6293,58.4801 -117.95492,87.7052 -1.39337,1.0356 -2.90711,1.9093 -5.63657,3.6865 0.72003,-3.0404 0.97842,-4.6139 1.46457,-6.1137 12.64261,-38.9968 25.29535,-77.9902 37.97546,-116.9748 9.89685,-30.4274 19.75437,-60.8682 29.84919,-91.2299 1.27621,-3.8381 3.35595,-7.6835 5.96423,-10.7622 28.53168,-33.6772 56.99091,-67.422 85.98767,-100.6971 21.54724,-24.7265 43.67468,-48.956 65.87262,-73.1043 23.66302,-25.7423 47.41589,-51.4148 71.66656,-76.6007 32.12268,-33.3611 64.39808,-66.5925 97.29822,-99.1827 28.3905,-28.123 57.72669,-55.292 86.68372,-82.8418 18.57916,-17.6762 37.23645,-35.2703 55.84515,-52.9154 26.4643,-25.0939 52.42749,-50.7438 79.52631,-75.1322 22.0278,-19.8245 45.4182,-38.1341 68.1912,-57.1316 43.3696,-36.18 86.7307,-72.3701 130.0935,-108.5582 14.5825,-12.16973 29.1629,-24.34185 43.7321,-36.52746 1.1098,-0.92822 2.1221,-1.97284 2.875,-4.29248 -3.6722,0.22034 -7.3689,0.24353 -11.0131,0.69147 -35.3622,4.34698 -69.7295,13.156 -103.7351,23.47613 -71.2748,21.63064 -139.75115,50.41934 -207.62523,80.84324 -75.29987,33.7524 -149.18713,70.3973 -222.78296,107.6466 -27.49524,13.9162 -54.58813,28.6329 -81.73761,43.2208 -4.40204,2.3651 -7.34515,1.1301 -10.81482,-1.4846 -29.5484,-22.2671 -59.15094,-44.4625 -88.77167,-66.6334 C 423.7612,1074.2277 324.47949,999.94476 225.20221,925.65607 178.76613,890.90808 132.33462,856.15399 85.887672,821.42059 65.600929,806.25 45.274445,791.13263 24.986845,775.96313 c -1.661846,-1.24261 -3.163111,-2.70007 -5.711111,-4.89526 2.641302,-0.50671 4.002899,-0.9198 5.383604,-0.99878 2.326204,-0.13312 4.664539,-0.0629 6.997772,-0.0629 241.83132,-0.001 483.66265,-0.003 725.49395,0.002 13.39624,2.4e-4 11.96167,0.45386 15.84979,-11.60132 28.38935,-88.02136 56.71283,-176.06396 85.03681,-264.10641 14.44257,-44.89331 28.82825,-89.80487 43.2655,-134.69986 27.90546,-86.77655 55.83484,-173.54538 83.73981,-260.322039 4.64221,-14.435875 9.20044,-28.89875 13.82916,-43.338986 0.54236,-1.692073 1.28777,-3.319053 2.50827,-6.424373 1.2542,2.864754 2.0682,4.364899 2.5871,5.960998 24.9901,76.86279 49.949,153.73573 74.925,230.60313 9.7331,29.95489 19.477,59.90634 29.2531,89.84719 22.1388,67.80317 44.3161,135.59382 66.4449,203.40034 7.4379,22.79107 14.7766,45.61456 22.285,68.79846 z"
   id="path2"
   sodipodi:nodetypes="cssscccsssssssssscssssssssssccsscssssssssssccsssscsssscscssssssccsssc"
   style="fill:#2f3339;fill-opacity:1" />
</svg>
